<?xml version="1.0" encoding="utf-8" standalone="no"?>
<!DOCTYPE svg PUBLIC "-//W3C//DTD SVG 1.1//EN"
  "http://www.w3.org/Graphics/SVG/1.1/DTD/svg11.dtd">
<svg xmlns:xlink="http://www.w3.org/1999/xlink" width="568.604375pt" height="351.969687pt" viewBox="0 0 568.604375 351.969687" xmlns="http://www.w3.org/2000/svg" version="1.1">
 <metadata>
  <rdf:RDF xmlns:dc="http://purl.org/dc/elements/1.1/" xmlns:cc="http://creativecommons.org/ns#" xmlns:rdf="http://www.w3.org/1999/02/22-rdf-syntax-ns#">
   <cc:Work>
    <dc:type rdf:resource="http://purl.org/dc/dcmitype/StillImage"/>
    <dc:date>2026-03-25T16:33:23.803814</dc:date>
    <dc:format>image/svg+xml</dc:format>
    <dc:creator>
     <cc:Agent>
      <dc:title>Matplotlib v3.10.8, https://matplotlib.org/</dc:title>
     </cc:Agent>
    </dc:creator>
   </cc:Work>
  </rdf:RDF>
 </metadata>
 <defs>
  <style type="text/css">*{stroke-linejoin: round; stroke-linecap: butt}</style>
 </defs>
 <g id="figure_1">
  <g id="patch_1">
   <path d="M 0 351.969687 
L 568.604375 351.969687 
L 568.604375 0 
L 0 0 
z
" style="fill: #ffffff"/>
  </g>
  <g id="axes_1">
   <g id="patch_2">
    <path d="M 64.804375 312.477812 
L 561.404375 312.477812 
L 561.404375 23.837812 
L 64.804375 23.837812 
z
" style="fill: #ffffff"/>
   </g>
   <g id="PathCollection_1">
    <defs>
     <path id="m3d1c8e9bbc" d="M -3.872983 3.872983 
L 3.872983 -3.872983 
M -3.872983 -3.872983 
L 3.872983 3.872983 
" style="stroke: #1f77b4; stroke-width: 0.3"/>
    </defs>
    <g clip-path="url(#p4b7048c1d9)">
     <use xlink:href="#m3d1c8e9bbc" x="538.831648" y="178.266624" style="fill: #1f77b4; stroke: #1f77b4; stroke-width: 0.3"/>
     <use xlink:href="#m3d1c8e9bbc" x="89.924594" y="180.593143" style="fill: #1f77b4; stroke: #1f77b4; stroke-width: 0.3"/>
     <use xlink:href="#m3d1c8e9bbc" x="89.106586" y="228.231178" style="fill: #1f77b4; stroke: #1f77b4; stroke-width: 0.3"/>
     <use xlink:href="#m3d1c8e9bbc" x="88.175532" y="141.919607" style="fill: #1f77b4; stroke: #1f77b4; stroke-width: 0.3"/>
     <use xlink:href="#m3d1c8e9bbc" x="89.787338" y="174.299378" style="fill: #1f77b4; stroke: #1f77b4; stroke-width: 0.3"/>
     <use xlink:href="#m3d1c8e9bbc" x="89.372234" y="287.364421" style="fill: #1f77b4; stroke: #1f77b4; stroke-width: 0.3"/>
     <use xlink:href="#m3d1c8e9bbc" x="87.944856" y="49.803715" style="fill: #1f77b4; stroke: #1f77b4; stroke-width: 0.3"/>
     <use xlink:href="#m3d1c8e9bbc" x="89.276898" y="296.326613" style="fill: #1f77b4; stroke: #1f77b4; stroke-width: 0.3"/>
     <use xlink:href="#m3d1c8e9bbc" x="88.311941" y="113.420605" style="fill: #1f77b4; stroke: #1f77b4; stroke-width: 0.3"/>
     <use xlink:href="#m3d1c8e9bbc" x="90.956637" y="205.89797" style="fill: #1f77b4; stroke: #1f77b4; stroke-width: 0.3"/>
     <use xlink:href="#m3d1c8e9bbc" x="88.346994" y="158.331245" style="fill: #1f77b4; stroke: #1f77b4; stroke-width: 0.3"/>
     <use xlink:href="#m3d1c8e9bbc" x="89.54673" y="82.782282" style="fill: #1f77b4; stroke: #1f77b4; stroke-width: 0.3"/>
     <use xlink:href="#m3d1c8e9bbc" x="87.377102" y="117.695633" style="fill: #1f77b4; stroke: #1f77b4; stroke-width: 0.3"/>
     <use xlink:href="#m3d1c8e9bbc" x="90.406369" y="226.276099" style="fill: #1f77b4; stroke: #1f77b4; stroke-width: 0.3"/>
     <use xlink:href="#m3d1c8e9bbc" x="88.660453" y="70.431954" style="fill: #1f77b4; stroke: #1f77b4; stroke-width: 0.3"/>
     <use xlink:href="#m3d1c8e9bbc" x="89.189019" y="101.764631" style="fill: #1f77b4; stroke: #1f77b4; stroke-width: 0.3"/>
     <use xlink:href="#m3d1c8e9bbc" x="90.181794" y="299.357812" style="fill: #1f77b4; stroke: #1f77b4; stroke-width: 0.3"/>
     <use xlink:href="#m3d1c8e9bbc" x="90.780864" y="280.94565" style="fill: #1f77b4; stroke: #1f77b4; stroke-width: 0.3"/>
     <use xlink:href="#m3d1c8e9bbc" x="89.724052" y="96.576762" style="fill: #1f77b4; stroke: #1f77b4; stroke-width: 0.3"/>
     <use xlink:href="#m3d1c8e9bbc" x="89.21259" y="209.610532" style="fill: #1f77b4; stroke: #1f77b4; stroke-width: 0.3"/>
     <use xlink:href="#m3d1c8e9bbc" x="89.550003" y="202.96633" style="fill: #1f77b4; stroke: #1f77b4; stroke-width: 0.3"/>
     <use xlink:href="#m3d1c8e9bbc" x="88.02804" y="146.68362" style="fill: #1f77b4; stroke: #1f77b4; stroke-width: 0.3"/>
     <use xlink:href="#m3d1c8e9bbc" x="87.869977" y="153.401465" style="fill: #1f77b4; stroke: #1f77b4; stroke-width: 0.3"/>
     <use xlink:href="#m3d1c8e9bbc" x="87.734079" y="170.895906" style="fill: #1f77b4; stroke: #1f77b4; stroke-width: 0.3"/>
     <use xlink:href="#m3d1c8e9bbc" x="88.505217" y="176.935151" style="fill: #1f77b4; stroke: #1f77b4; stroke-width: 0.3"/>
     <use xlink:href="#m3d1c8e9bbc" x="90.464114" y="149.568006" style="fill: #1f77b4; stroke: #1f77b4; stroke-width: 0.3"/>
     <use xlink:href="#m3d1c8e9bbc" x="88.961202" y="171.438449" style="fill: #1f77b4; stroke: #1f77b4; stroke-width: 0.3"/>
     <use xlink:href="#m3d1c8e9bbc" x="89.787083" y="36.957812" style="fill: #1f77b4; stroke: #1f77b4; stroke-width: 0.3"/>
     <use xlink:href="#m3d1c8e9bbc" x="90.054679" y="215.443572" style="fill: #1f77b4; stroke: #1f77b4; stroke-width: 0.3"/>
    </g>
   </g>
   <g id="PathCollection_2">
    <defs>
     <path id="mc83695c2a5" d="M 0 3.872983 
C 1.027127 3.872983 2.012324 3.464901 2.738613 2.738613 
C 3.464901 2.012324 3.872983 1.027127 3.872983 0 
C 3.872983 -1.027127 3.464901 -2.012324 2.738613 -2.738613 
C 2.012324 -3.464901 1.027127 -3.872983 0 -3.872983 
C -1.027127 -3.872983 -2.012324 -3.464901 -2.738613 -2.738613 
C -3.464901 -2.012324 -3.872983 -1.027127 -3.872983 0 
C -3.872983 1.027127 -3.464901 2.012324 -2.738613 2.738613 
C -2.012324 3.464901 -1.027127 3.872983 0 3.872983 
z
" style="stroke: #000000; stroke-opacity: 0.7; stroke-width: 0.3"/>
    </defs>
    <g clip-path="url(#p4b7048c1d9)">
     <use xlink:href="#mc83695c2a5" x="379.026057" y="178.266624" style="fill: #d62728; fill-opacity: 0.7; stroke: #000000; stroke-opacity: 0.7; stroke-width: 0.3"/>
     <use xlink:href="#mc83695c2a5" x="354.845261" y="180.593147" style="fill: #d62728; fill-opacity: 0.7; stroke: #000000; stroke-opacity: 0.7; stroke-width: 0.3"/>
     <use xlink:href="#mc83695c2a5" x="357.252254" y="228.231179" style="fill: #d62728; fill-opacity: 0.7; stroke: #000000; stroke-opacity: 0.7; stroke-width: 0.3"/>
     <use xlink:href="#mc83695c2a5" x="377.541621" y="141.919607" style="fill: #d62728; fill-opacity: 0.7; stroke: #000000; stroke-opacity: 0.7; stroke-width: 0.3"/>
     <use xlink:href="#mc83695c2a5" x="374.861697" y="174.299378" style="fill: #d62728; fill-opacity: 0.7; stroke: #000000; stroke-opacity: 0.7; stroke-width: 0.3"/>
     <use xlink:href="#mc83695c2a5" x="342.178022" y="287.364423" style="fill: #d62728; fill-opacity: 0.7; stroke: #000000; stroke-opacity: 0.7; stroke-width: 0.3"/>
     <use xlink:href="#mc83695c2a5" x="371.476029" y="49.803715" style="fill: #d62728; fill-opacity: 0.7; stroke: #000000; stroke-opacity: 0.7; stroke-width: 0.3"/>
     <use xlink:href="#mc83695c2a5" x="382.074023" y="296.326614" style="fill: #d62728; fill-opacity: 0.7; stroke: #000000; stroke-opacity: 0.7; stroke-width: 0.3"/>
     <use xlink:href="#mc83695c2a5" x="372.906025" y="113.420605" style="fill: #d62728; fill-opacity: 0.7; stroke: #000000; stroke-opacity: 0.7; stroke-width: 0.3"/>
     <use xlink:href="#mc83695c2a5" x="365.339055" y="205.89797" style="fill: #d62728; fill-opacity: 0.7; stroke: #000000; stroke-opacity: 0.7; stroke-width: 0.3"/>
     <use xlink:href="#mc83695c2a5" x="364.69179" y="158.331246" style="fill: #d62728; fill-opacity: 0.7; stroke: #000000; stroke-opacity: 0.7; stroke-width: 0.3"/>
     <use xlink:href="#mc83695c2a5" x="364.134576" y="82.782282" style="fill: #d62728; fill-opacity: 0.7; stroke: #000000; stroke-opacity: 0.7; stroke-width: 0.3"/>
     <use xlink:href="#mc83695c2a5" x="367.272369" y="117.695634" style="fill: #d62728; fill-opacity: 0.7; stroke: #000000; stroke-opacity: 0.7; stroke-width: 0.3"/>
     <use xlink:href="#mc83695c2a5" x="358.063475" y="226.2761" style="fill: #d62728; fill-opacity: 0.7; stroke: #000000; stroke-opacity: 0.7; stroke-width: 0.3"/>
     <use xlink:href="#mc83695c2a5" x="389.291379" y="70.431954" style="fill: #d62728; fill-opacity: 0.7; stroke: #000000; stroke-opacity: 0.7; stroke-width: 0.3"/>
     <use xlink:href="#mc83695c2a5" x="363.27532" y="101.764634" style="fill: #d62728; fill-opacity: 0.7; stroke: #000000; stroke-opacity: 0.7; stroke-width: 0.3"/>
     <use xlink:href="#mc83695c2a5" x="384.495836" y="299.357812" style="fill: #d62728; fill-opacity: 0.7; stroke: #000000; stroke-opacity: 0.7; stroke-width: 0.3"/>
     <use xlink:href="#mc83695c2a5" x="389.430551" y="280.94565" style="fill: #d62728; fill-opacity: 0.7; stroke: #000000; stroke-opacity: 0.7; stroke-width: 0.3"/>
     <use xlink:href="#mc83695c2a5" x="401.783643" y="96.576762" style="fill: #d62728; fill-opacity: 0.7; stroke: #000000; stroke-opacity: 0.7; stroke-width: 0.3"/>
     <use xlink:href="#mc83695c2a5" x="361.957986" y="209.610533" style="fill: #d62728; fill-opacity: 0.7; stroke: #000000; stroke-opacity: 0.7; stroke-width: 0.3"/>
     <use xlink:href="#mc83695c2a5" x="365.606987" y="202.96633" style="fill: #d62728; fill-opacity: 0.7; stroke: #000000; stroke-opacity: 0.7; stroke-width: 0.3"/>
     <use xlink:href="#mc83695c2a5" x="375.14547" y="146.68362" style="fill: #d62728; fill-opacity: 0.7; stroke: #000000; stroke-opacity: 0.7; stroke-width: 0.3"/>
     <use xlink:href="#mc83695c2a5" x="372.062212" y="153.401468" style="fill: #d62728; fill-opacity: 0.7; stroke: #000000; stroke-opacity: 0.7; stroke-width: 0.3"/>
     <use xlink:href="#mc83695c2a5" x="355.549392" y="170.895907" style="fill: #d62728; fill-opacity: 0.7; stroke: #000000; stroke-opacity: 0.7; stroke-width: 0.3"/>
     <use xlink:href="#mc83695c2a5" x="371.538932" y="176.935152" style="fill: #d62728; fill-opacity: 0.7; stroke: #000000; stroke-opacity: 0.7; stroke-width: 0.3"/>
     <use xlink:href="#mc83695c2a5" x="370.817155" y="149.568007" style="fill: #d62728; fill-opacity: 0.7; stroke: #000000; stroke-opacity: 0.7; stroke-width: 0.3"/>
     <use xlink:href="#mc83695c2a5" x="377.685152" y="171.43845" style="fill: #d62728; fill-opacity: 0.7; stroke: #000000; stroke-opacity: 0.7; stroke-width: 0.3"/>
     <use xlink:href="#mc83695c2a5" x="370.480523" y="36.957813" style="fill: #d62728; fill-opacity: 0.7; stroke: #000000; stroke-opacity: 0.7; stroke-width: 0.3"/>
     <use xlink:href="#mc83695c2a5" x="403.551596" y="215.443573" style="fill: #d62728; fill-opacity: 0.7; stroke: #000000; stroke-opacity: 0.7; stroke-width: 0.3"/>
    </g>
   </g>
   <g id="PathCollection_3">
    <defs>
     <path id="mafda88e827" d="M 0 3.872983 
C 1.027127 3.872983 2.012324 3.464901 2.738613 2.738613 
C 3.464901 2.012324 3.872983 1.027127 3.872983 0 
C 3.872983 -1.027127 3.464901 -2.012324 2.738613 -2.738613 
C 2.012324 -3.464901 1.027127 -3.872983 0 -3.872983 
C -1.027127 -3.872983 -2.012324 -3.464901 -2.738613 -2.738613 
C -3.464901 -2.012324 -3.872983 -1.027127 -3.872983 0 
C -3.872983 1.027127 -3.464901 2.012324 -2.738613 2.738613 
C -2.012324 3.464901 -1.027127 3.872983 0 3.872983 
z
" style="stroke: #000000; stroke-opacity: 0.7; stroke-width: 0.3"/>
    </defs>
    <g clip-path="url(#p4b7048c1d9)">
     <use xlink:href="#mafda88e827" x="383.057456" y="178.266624" style="fill: #2ca02c; fill-opacity: 0.7; stroke: #000000; stroke-opacity: 0.7; stroke-width: 0.3"/>
     <use xlink:href="#mafda88e827" x="371.156597" y="180.593143" style="fill: #2ca02c; fill-opacity: 0.7; stroke: #000000; stroke-opacity: 0.7; stroke-width: 0.3"/>
     <use xlink:href="#mafda88e827" x="409.507734" y="228.231179" style="fill: #2ca02c; fill-opacity: 0.7; stroke: #000000; stroke-opacity: 0.7; stroke-width: 0.3"/>
     <use xlink:href="#mafda88e827" x="394.163335" y="141.919605" style="fill: #2ca02c; fill-opacity: 0.7; stroke: #000000; stroke-opacity: 0.7; stroke-width: 0.3"/>
     <use xlink:href="#mafda88e827" x="386.371358" y="174.299378" style="fill: #2ca02c; fill-opacity: 0.7; stroke: #000000; stroke-opacity: 0.7; stroke-width: 0.3"/>
     <use xlink:href="#mafda88e827" x="365.649257" y="287.364423" style="fill: #2ca02c; fill-opacity: 0.7; stroke: #000000; stroke-opacity: 0.7; stroke-width: 0.3"/>
     <use xlink:href="#mafda88e827" x="392.227673" y="49.803715" style="fill: #2ca02c; fill-opacity: 0.7; stroke: #000000; stroke-opacity: 0.7; stroke-width: 0.3"/>
     <use xlink:href="#mafda88e827" x="393.517667" y="296.326614" style="fill: #2ca02c; fill-opacity: 0.7; stroke: #000000; stroke-opacity: 0.7; stroke-width: 0.3"/>
     <use xlink:href="#mafda88e827" x="388.60879" y="113.420599" style="fill: #2ca02c; fill-opacity: 0.7; stroke: #000000; stroke-opacity: 0.7; stroke-width: 0.3"/>
     <use xlink:href="#mafda88e827" x="381.033452" y="205.897969" style="fill: #2ca02c; fill-opacity: 0.7; stroke: #000000; stroke-opacity: 0.7; stroke-width: 0.3"/>
     <use xlink:href="#mafda88e827" x="384.770331" y="158.331246" style="fill: #2ca02c; fill-opacity: 0.7; stroke: #000000; stroke-opacity: 0.7; stroke-width: 0.3"/>
     <use xlink:href="#mafda88e827" x="394.905648" y="82.782282" style="fill: #2ca02c; fill-opacity: 0.7; stroke: #000000; stroke-opacity: 0.7; stroke-width: 0.3"/>
     <use xlink:href="#mafda88e827" x="386.34972" y="117.695634" style="fill: #2ca02c; fill-opacity: 0.7; stroke: #000000; stroke-opacity: 0.7; stroke-width: 0.3"/>
     <use xlink:href="#mafda88e827" x="380.548818" y="226.276094" style="fill: #2ca02c; fill-opacity: 0.7; stroke: #000000; stroke-opacity: 0.7; stroke-width: 0.3"/>
     <use xlink:href="#mafda88e827" x="388.734404" y="70.431954" style="fill: #2ca02c; fill-opacity: 0.7; stroke: #000000; stroke-opacity: 0.7; stroke-width: 0.3"/>
     <use xlink:href="#mafda88e827" x="394.709786" y="101.764634" style="fill: #2ca02c; fill-opacity: 0.7; stroke: #000000; stroke-opacity: 0.7; stroke-width: 0.3"/>
     <use xlink:href="#mafda88e827" x="405.941279" y="299.357812" style="fill: #2ca02c; fill-opacity: 0.7; stroke: #000000; stroke-opacity: 0.7; stroke-width: 0.3"/>
     <use xlink:href="#mafda88e827" x="376.502168" y="280.94565" style="fill: #2ca02c; fill-opacity: 0.7; stroke: #000000; stroke-opacity: 0.7; stroke-width: 0.3"/>
     <use xlink:href="#mafda88e827" x="378.43759" y="96.576762" style="fill: #2ca02c; fill-opacity: 0.7; stroke: #000000; stroke-opacity: 0.7; stroke-width: 0.3"/>
     <use xlink:href="#mafda88e827" x="376.762562" y="209.610533" style="fill: #2ca02c; fill-opacity: 0.7; stroke: #000000; stroke-opacity: 0.7; stroke-width: 0.3"/>
     <use xlink:href="#mafda88e827" x="379.512942" y="202.96633" style="fill: #2ca02c; fill-opacity: 0.7; stroke: #000000; stroke-opacity: 0.7; stroke-width: 0.3"/>
     <use xlink:href="#mafda88e827" x="364.279944" y="146.68362" style="fill: #2ca02c; fill-opacity: 0.7; stroke: #000000; stroke-opacity: 0.7; stroke-width: 0.3"/>
     <use xlink:href="#mafda88e827" x="387.772179" y="153.401468" style="fill: #2ca02c; fill-opacity: 0.7; stroke: #000000; stroke-opacity: 0.7; stroke-width: 0.3"/>
     <use xlink:href="#mafda88e827" x="371.808764" y="170.895907" style="fill: #2ca02c; fill-opacity: 0.7; stroke: #000000; stroke-opacity: 0.7; stroke-width: 0.3"/>
     <use xlink:href="#mafda88e827" x="401.517132" y="176.935152" style="fill: #2ca02c; fill-opacity: 0.7; stroke: #000000; stroke-opacity: 0.7; stroke-width: 0.3"/>
     <use xlink:href="#mafda88e827" x="397.344628" y="149.568007" style="fill: #2ca02c; fill-opacity: 0.7; stroke: #000000; stroke-opacity: 0.7; stroke-width: 0.3"/>
     <use xlink:href="#mafda88e827" x="381.083483" y="171.43844" style="fill: #2ca02c; fill-opacity: 0.7; stroke: #000000; stroke-opacity: 0.7; stroke-width: 0.3"/>
     <use xlink:href="#mafda88e827" x="378.882429" y="36.957813" style="fill: #2ca02c; fill-opacity: 0.7; stroke: #000000; stroke-opacity: 0.7; stroke-width: 0.3"/>
     <use xlink:href="#mafda88e827" x="393.408629" y="215.443573" style="fill: #2ca02c; fill-opacity: 0.7; stroke: #000000; stroke-opacity: 0.7; stroke-width: 0.3"/>
    </g>
   </g>
   <g id="matplotlib.axis_1">
    <g id="xtick_1">
     <g id="line2d_1">
      <path d="M 84.326852 312.477812 
L 84.326852 23.837812 
" clip-path="url(#p4b7048c1d9)" style="fill: none; stroke: #b0b0b0; stroke-opacity: 0.3; stroke-width: 0.8; stroke-linecap: square"/>
     </g>
     <g id="line2d_2">
      <defs>
       <path id="m58c81d7cc6" d="M 0 0 
L 0 3.5 
" style="stroke: #000000; stroke-width: 0.8"/>
      </defs>
      <g>
       <use xlink:href="#m58c81d7cc6" x="84.326852" y="312.477812" style="stroke: #000000; stroke-width: 0.8"/>
      </g>
     </g>
     <g id="text_1">
      <!-- 0 -->
      <g transform="translate(81.145602 327.07625) scale(0.1 -0.1)">
       <defs>
        <path id="DejaVuSans-30" d="M 2034 4250 
Q 1547 4250 1301 3770 
Q 1056 3291 1056 2328 
Q 1056 1369 1301 889 
Q 1547 409 2034 409 
Q 2525 409 2770 889 
Q 3016 1369 3016 2328 
Q 3016 3291 2770 3770 
Q 2525 4250 2034 4250 
z
M 2034 4750 
Q 2819 4750 3233 4129 
Q 3647 3509 3647 2328 
Q 3647 1150 3233 529 
Q 2819 -91 2034 -91 
Q 1250 -91 836 529 
Q 422 1150 422 2328 
Q 422 3509 836 4129 
Q 1250 4750 2034 4750 
z
" transform="scale(0.015625)"/>
       </defs>
       <use xlink:href="#DejaVuSans-30"/>
      </g>
     </g>
    </g>
    <g id="xtick_2">
     <g id="line2d_3">
      <path d="M 160.979144 312.477812 
L 160.979144 23.837812 
" clip-path="url(#p4b7048c1d9)" style="fill: none; stroke: #b0b0b0; stroke-opacity: 0.3; stroke-width: 0.8; stroke-linecap: square"/>
     </g>
     <g id="line2d_4">
      <g>
       <use xlink:href="#m58c81d7cc6" x="160.979144" y="312.477812" style="stroke: #000000; stroke-width: 0.8"/>
      </g>
     </g>
     <g id="text_2">
      <!-- 200 -->
      <g transform="translate(151.435394 327.07625) scale(0.1 -0.1)">
       <defs>
        <path id="DejaVuSans-32" d="M 1228 531 
L 3431 531 
L 3431 0 
L 469 0 
L 469 531 
Q 828 903 1448 1529 
Q 2069 2156 2228 2338 
Q 2531 2678 2651 2914 
Q 2772 3150 2772 3378 
Q 2772 3750 2511 3984 
Q 2250 4219 1831 4219 
Q 1534 4219 1204 4116 
Q 875 4013 500 3803 
L 500 4441 
Q 881 4594 1212 4672 
Q 1544 4750 1819 4750 
Q 2544 4750 2975 4387 
Q 3406 4025 3406 3419 
Q 3406 3131 3298 2873 
Q 3191 2616 2906 2266 
Q 2828 2175 2409 1742 
Q 1991 1309 1228 531 
z
" transform="scale(0.015625)"/>
       </defs>
       <use xlink:href="#DejaVuSans-32"/>
       <use xlink:href="#DejaVuSans-30" transform="translate(63.623047 0)"/>
       <use xlink:href="#DejaVuSans-30" transform="translate(127.246094 0)"/>
      </g>
     </g>
    </g>
    <g id="xtick_3">
     <g id="line2d_5">
      <path d="M 237.631435 312.477812 
L 237.631435 23.837812 
" clip-path="url(#p4b7048c1d9)" style="fill: none; stroke: #b0b0b0; stroke-opacity: 0.3; stroke-width: 0.8; stroke-linecap: square"/>
     </g>
     <g id="line2d_6">
      <g>
       <use xlink:href="#m58c81d7cc6" x="237.631435" y="312.477812" style="stroke: #000000; stroke-width: 0.8"/>
      </g>
     </g>
     <g id="text_3">
      <!-- 400 -->
      <g transform="translate(228.087685 327.07625) scale(0.1 -0.1)">
       <defs>
        <path id="DejaVuSans-34" d="M 2419 4116 
L 825 1625 
L 2419 1625 
L 2419 4116 
z
M 2253 4666 
L 3047 4666 
L 3047 1625 
L 3713 1625 
L 3713 1100 
L 3047 1100 
L 3047 0 
L 2419 0 
L 2419 1100 
L 313 1100 
L 313 1709 
L 2253 4666 
z
" transform="scale(0.015625)"/>
       </defs>
       <use xlink:href="#DejaVuSans-34"/>
       <use xlink:href="#DejaVuSans-30" transform="translate(63.623047 0)"/>
       <use xlink:href="#DejaVuSans-30" transform="translate(127.246094 0)"/>
      </g>
     </g>
    </g>
    <g id="xtick_4">
     <g id="line2d_7">
      <path d="M 314.283726 312.477812 
L 314.283726 23.837812 
" clip-path="url(#p4b7048c1d9)" style="fill: none; stroke: #b0b0b0; stroke-opacity: 0.3; stroke-width: 0.8; stroke-linecap: square"/>
     </g>
     <g id="line2d_8">
      <g>
       <use xlink:href="#m58c81d7cc6" x="314.283726" y="312.477812" style="stroke: #000000; stroke-width: 0.8"/>
      </g>
     </g>
     <g id="text_4">
      <!-- 600 -->
      <g transform="translate(304.739976 327.07625) scale(0.1 -0.1)">
       <defs>
        <path id="DejaVuSans-36" d="M 2113 2584 
Q 1688 2584 1439 2293 
Q 1191 2003 1191 1497 
Q 1191 994 1439 701 
Q 1688 409 2113 409 
Q 2538 409 2786 701 
Q 3034 994 3034 1497 
Q 3034 2003 2786 2293 
Q 2538 2584 2113 2584 
z
M 3366 4563 
L 3366 3988 
Q 3128 4100 2886 4159 
Q 2644 4219 2406 4219 
Q 1781 4219 1451 3797 
Q 1122 3375 1075 2522 
Q 1259 2794 1537 2939 
Q 1816 3084 2150 3084 
Q 2853 3084 3261 2657 
Q 3669 2231 3669 1497 
Q 3669 778 3244 343 
Q 2819 -91 2113 -91 
Q 1303 -91 875 529 
Q 447 1150 447 2328 
Q 447 3434 972 4092 
Q 1497 4750 2381 4750 
Q 2619 4750 2861 4703 
Q 3103 4656 3366 4563 
z
" transform="scale(0.015625)"/>
       </defs>
       <use xlink:href="#DejaVuSans-36"/>
       <use xlink:href="#DejaVuSans-30" transform="translate(63.623047 0)"/>
       <use xlink:href="#DejaVuSans-30" transform="translate(127.246094 0)"/>
      </g>
     </g>
    </g>
    <g id="xtick_5">
     <g id="line2d_9">
      <path d="M 390.936018 312.477812 
L 390.936018 23.837812 
" clip-path="url(#p4b7048c1d9)" style="fill: none; stroke: #b0b0b0; stroke-opacity: 0.3; stroke-width: 0.8; stroke-linecap: square"/>
     </g>
     <g id="line2d_10">
      <g>
       <use xlink:href="#m58c81d7cc6" x="390.936018" y="312.477812" style="stroke: #000000; stroke-width: 0.8"/>
      </g>
     </g>
     <g id="text_5">
      <!-- 800 -->
      <g transform="translate(381.392268 327.07625) scale(0.1 -0.1)">
       <defs>
        <path id="DejaVuSans-38" d="M 2034 2216 
Q 1584 2216 1326 1975 
Q 1069 1734 1069 1313 
Q 1069 891 1326 650 
Q 1584 409 2034 409 
Q 2484 409 2743 651 
Q 3003 894 3003 1313 
Q 3003 1734 2745 1975 
Q 2488 2216 2034 2216 
z
M 1403 2484 
Q 997 2584 770 2862 
Q 544 3141 544 3541 
Q 544 4100 942 4425 
Q 1341 4750 2034 4750 
Q 2731 4750 3128 4425 
Q 3525 4100 3525 3541 
Q 3525 3141 3298 2862 
Q 3072 2584 2669 2484 
Q 3125 2378 3379 2068 
Q 3634 1759 3634 1313 
Q 3634 634 3220 271 
Q 2806 -91 2034 -91 
Q 1263 -91 848 271 
Q 434 634 434 1313 
Q 434 1759 690 2068 
Q 947 2378 1403 2484 
z
M 1172 3481 
Q 1172 3119 1398 2916 
Q 1625 2713 2034 2713 
Q 2441 2713 2670 2916 
Q 2900 3119 2900 3481 
Q 2900 3844 2670 4047 
Q 2441 4250 2034 4250 
Q 1625 4250 1398 4047 
Q 1172 3844 1172 3481 
z
" transform="scale(0.015625)"/>
       </defs>
       <use xlink:href="#DejaVuSans-38"/>
       <use xlink:href="#DejaVuSans-30" transform="translate(63.623047 0)"/>
       <use xlink:href="#DejaVuSans-30" transform="translate(127.246094 0)"/>
      </g>
     </g>
    </g>
    <g id="xtick_6">
     <g id="line2d_11">
      <path d="M 467.588309 312.477812 
L 467.588309 23.837812 
" clip-path="url(#p4b7048c1d9)" style="fill: none; stroke: #b0b0b0; stroke-opacity: 0.3; stroke-width: 0.8; stroke-linecap: square"/>
     </g>
     <g id="line2d_12">
      <g>
       <use xlink:href="#m58c81d7cc6" x="467.588309" y="312.477812" style="stroke: #000000; stroke-width: 0.8"/>
      </g>
     </g>
     <g id="text_6">
      <!-- 1000 -->
      <g transform="translate(454.863309 327.07625) scale(0.1 -0.1)">
       <defs>
        <path id="DejaVuSans-31" d="M 794 531 
L 1825 531 
L 1825 4091 
L 703 3866 
L 703 4441 
L 1819 4666 
L 2450 4666 
L 2450 531 
L 3481 531 
L 3481 0 
L 794 0 
L 794 531 
z
" transform="scale(0.015625)"/>
       </defs>
       <use xlink:href="#DejaVuSans-31"/>
       <use xlink:href="#DejaVuSans-30" transform="translate(63.623047 0)"/>
       <use xlink:href="#DejaVuSans-30" transform="translate(127.246094 0)"/>
       <use xlink:href="#DejaVuSans-30" transform="translate(190.869141 0)"/>
      </g>
     </g>
    </g>
    <g id="xtick_7">
     <g id="line2d_13">
      <path d="M 544.240601 312.477812 
L 544.240601 23.837812 
" clip-path="url(#p4b7048c1d9)" style="fill: none; stroke: #b0b0b0; stroke-opacity: 0.3; stroke-width: 0.8; stroke-linecap: square"/>
     </g>
     <g id="line2d_14">
      <g>
       <use xlink:href="#m58c81d7cc6" x="544.240601" y="312.477812" style="stroke: #000000; stroke-width: 0.8"/>
      </g>
     </g>
     <g id="text_7">
      <!-- 1200 -->
      <g transform="translate(531.515601 327.07625) scale(0.1 -0.1)">
       <use xlink:href="#DejaVuSans-31"/>
       <use xlink:href="#DejaVuSans-32" transform="translate(63.623047 0)"/>
       <use xlink:href="#DejaVuSans-30" transform="translate(127.246094 0)"/>
       <use xlink:href="#DejaVuSans-30" transform="translate(190.869141 0)"/>
      </g>
     </g>
    </g>
    <g id="text_8">
     <!-- Runtime (ms) -->
     <g transform="translate(272.48625 342.274062) scale(0.12 -0.12)">
      <defs>
       <path id="DejaVuSans-52" d="M 2841 2188 
Q 3044 2119 3236 1894 
Q 3428 1669 3622 1275 
L 4263 0 
L 3584 0 
L 2988 1197 
Q 2756 1666 2539 1819 
Q 2322 1972 1947 1972 
L 1259 1972 
L 1259 0 
L 628 0 
L 628 4666 
L 2053 4666 
Q 2853 4666 3247 4331 
Q 3641 3997 3641 3322 
Q 3641 2881 3436 2590 
Q 3231 2300 2841 2188 
z
M 1259 4147 
L 1259 2491 
L 2053 2491 
Q 2509 2491 2742 2702 
Q 2975 2913 2975 3322 
Q 2975 3731 2742 3939 
Q 2509 4147 2053 4147 
L 1259 4147 
z
" transform="scale(0.015625)"/>
       <path id="DejaVuSans-75" d="M 544 1381 
L 544 3500 
L 1119 3500 
L 1119 1403 
Q 1119 906 1312 657 
Q 1506 409 1894 409 
Q 2359 409 2629 706 
Q 2900 1003 2900 1516 
L 2900 3500 
L 3475 3500 
L 3475 0 
L 2900 0 
L 2900 538 
Q 2691 219 2414 64 
Q 2138 -91 1772 -91 
Q 1169 -91 856 284 
Q 544 659 544 1381 
z
M 1991 3584 
L 1991 3584 
z
" transform="scale(0.015625)"/>
       <path id="DejaVuSans-6e" d="M 3513 2113 
L 3513 0 
L 2938 0 
L 2938 2094 
Q 2938 2591 2744 2837 
Q 2550 3084 2163 3084 
Q 1697 3084 1428 2787 
Q 1159 2491 1159 1978 
L 1159 0 
L 581 0 
L 581 3500 
L 1159 3500 
L 1159 2956 
Q 1366 3272 1645 3428 
Q 1925 3584 2291 3584 
Q 2894 3584 3203 3211 
Q 3513 2838 3513 2113 
z
" transform="scale(0.015625)"/>
       <path id="DejaVuSans-74" d="M 1172 4494 
L 1172 3500 
L 2356 3500 
L 2356 3053 
L 1172 3053 
L 1172 1153 
Q 1172 725 1289 603 
Q 1406 481 1766 481 
L 2356 481 
L 2356 0 
L 1766 0 
Q 1100 0 847 248 
Q 594 497 594 1153 
L 594 3053 
L 172 3053 
L 172 3500 
L 594 3500 
L 594 4494 
L 1172 4494 
z
" transform="scale(0.015625)"/>
       <path id="DejaVuSans-69" d="M 603 3500 
L 1178 3500 
L 1178 0 
L 603 0 
L 603 3500 
z
M 603 4863 
L 1178 4863 
L 1178 4134 
L 603 4134 
L 603 4863 
z
" transform="scale(0.015625)"/>
       <path id="DejaVuSans-6d" d="M 3328 2828 
Q 3544 3216 3844 3400 
Q 4144 3584 4550 3584 
Q 5097 3584 5394 3201 
Q 5691 2819 5691 2113 
L 5691 0 
L 5113 0 
L 5113 2094 
Q 5113 2597 4934 2840 
Q 4756 3084 4391 3084 
Q 3944 3084 3684 2787 
Q 3425 2491 3425 1978 
L 3425 0 
L 2847 0 
L 2847 2094 
Q 2847 2600 2669 2842 
Q 2491 3084 2119 3084 
Q 1678 3084 1418 2786 
Q 1159 2488 1159 1978 
L 1159 0 
L 581 0 
L 581 3500 
L 1159 3500 
L 1159 2956 
Q 1356 3278 1631 3431 
Q 1906 3584 2284 3584 
Q 2666 3584 2933 3390 
Q 3200 3197 3328 2828 
z
" transform="scale(0.015625)"/>
       <path id="DejaVuSans-65" d="M 3597 1894 
L 3597 1613 
L 953 1613 
Q 991 1019 1311 708 
Q 1631 397 2203 397 
Q 2534 397 2845 478 
Q 3156 559 3463 722 
L 3463 178 
Q 3153 47 2828 -22 
Q 2503 -91 2169 -91 
Q 1331 -91 842 396 
Q 353 884 353 1716 
Q 353 2575 817 3079 
Q 1281 3584 2069 3584 
Q 2775 3584 3186 3129 
Q 3597 2675 3597 1894 
z
M 3022 2063 
Q 3016 2534 2758 2815 
Q 2500 3097 2075 3097 
Q 1594 3097 1305 2825 
Q 1016 2553 972 2059 
L 3022 2063 
z
" transform="scale(0.015625)"/>
       <path id="DejaVuSans-20" transform="scale(0.015625)"/>
       <path id="DejaVuSans-28" d="M 1984 4856 
Q 1566 4138 1362 3434 
Q 1159 2731 1159 2009 
Q 1159 1288 1364 580 
Q 1569 -128 1984 -844 
L 1484 -844 
Q 1016 -109 783 600 
Q 550 1309 550 2009 
Q 550 2706 781 3412 
Q 1013 4119 1484 4856 
L 1984 4856 
z
" transform="scale(0.015625)"/>
       <path id="DejaVuSans-73" d="M 2834 3397 
L 2834 2853 
Q 2591 2978 2328 3040 
Q 2066 3103 1784 3103 
Q 1356 3103 1142 2972 
Q 928 2841 928 2578 
Q 928 2378 1081 2264 
Q 1234 2150 1697 2047 
L 1894 2003 
Q 2506 1872 2764 1633 
Q 3022 1394 3022 966 
Q 3022 478 2636 193 
Q 2250 -91 1575 -91 
Q 1294 -91 989 -36 
Q 684 19 347 128 
L 347 722 
Q 666 556 975 473 
Q 1284 391 1588 391 
Q 1994 391 2212 530 
Q 2431 669 2431 922 
Q 2431 1156 2273 1281 
Q 2116 1406 1581 1522 
L 1381 1569 
Q 847 1681 609 1914 
Q 372 2147 372 2553 
Q 372 3047 722 3315 
Q 1072 3584 1716 3584 
Q 2034 3584 2315 3537 
Q 2597 3491 2834 3397 
z
" transform="scale(0.015625)"/>
       <path id="DejaVuSans-29" d="M 513 4856 
L 1013 4856 
Q 1481 4119 1714 3412 
Q 1947 2706 1947 2009 
Q 1947 1309 1714 600 
Q 1481 -109 1013 -844 
L 513 -844 
Q 928 -128 1133 580 
Q 1338 1288 1338 2009 
Q 1338 2731 1133 3434 
Q 928 4138 513 4856 
z
" transform="scale(0.015625)"/>
      </defs>
      <use xlink:href="#DejaVuSans-52"/>
      <use xlink:href="#DejaVuSans-75" transform="translate(64.982422 0)"/>
      <use xlink:href="#DejaVuSans-6e" transform="translate(128.361328 0)"/>
      <use xlink:href="#DejaVuSans-74" transform="translate(191.740234 0)"/>
      <use xlink:href="#DejaVuSans-69" transform="translate(230.949219 0)"/>
      <use xlink:href="#DejaVuSans-6d" transform="translate(258.732422 0)"/>
      <use xlink:href="#DejaVuSans-65" transform="translate(356.144531 0)"/>
      <use xlink:href="#DejaVuSans-20" transform="translate(417.667969 0)"/>
      <use xlink:href="#DejaVuSans-28" transform="translate(449.455078 0)"/>
      <use xlink:href="#DejaVuSans-6d" transform="translate(488.46875 0)"/>
      <use xlink:href="#DejaVuSans-73" transform="translate(585.880859 0)"/>
      <use xlink:href="#DejaVuSans-29" transform="translate(637.980469 0)"/>
     </g>
    </g>
   </g>
   <g id="matplotlib.axis_2">
    <g id="ytick_1">
     <g id="line2d_15">
      <path d="M 64.804375 290.280542 
L 561.404375 290.280542 
" clip-path="url(#p4b7048c1d9)" style="fill: none; stroke: #b0b0b0; stroke-opacity: 0.3; stroke-width: 0.8; stroke-linecap: square"/>
     </g>
     <g id="line2d_16">
      <defs>
       <path id="md28b96540a" d="M 0 0 
L -3.5 0 
" style="stroke: #000000; stroke-width: 0.8"/>
      </defs>
      <g>
       <use xlink:href="#md28b96540a" x="64.804375" y="290.280542" style="stroke: #000000; stroke-width: 0.8"/>
      </g>
     </g>
     <g id="text_9">
      <!-- 0.1275 -->
      <g transform="translate(22.81375 294.07976) scale(0.1 -0.1)">
       <defs>
        <path id="DejaVuSans-2e" d="M 684 794 
L 1344 794 
L 1344 0 
L 684 0 
L 684 794 
z
" transform="scale(0.015625)"/>
        <path id="DejaVuSans-37" d="M 525 4666 
L 3525 4666 
L 3525 4397 
L 1831 0 
L 1172 0 
L 2766 4134 
L 525 4134 
L 525 4666 
z
" transform="scale(0.015625)"/>
        <path id="DejaVuSans-35" d="M 691 4666 
L 3169 4666 
L 3169 4134 
L 1269 4134 
L 1269 2991 
Q 1406 3038 1543 3061 
Q 1681 3084 1819 3084 
Q 2600 3084 3056 2656 
Q 3513 2228 3513 1497 
Q 3513 744 3044 326 
Q 2575 -91 1722 -91 
Q 1428 -91 1123 -41 
Q 819 9 494 109 
L 494 744 
Q 775 591 1075 516 
Q 1375 441 1709 441 
Q 2250 441 2565 725 
Q 2881 1009 2881 1497 
Q 2881 1984 2565 2268 
Q 2250 2553 1709 2553 
Q 1456 2553 1204 2497 
Q 953 2441 691 2322 
L 691 4666 
z
" transform="scale(0.015625)"/>
       </defs>
       <use xlink:href="#DejaVuSans-30"/>
       <use xlink:href="#DejaVuSans-2e" transform="translate(63.623047 0)"/>
       <use xlink:href="#DejaVuSans-31" transform="translate(95.410156 0)"/>
       <use xlink:href="#DejaVuSans-32" transform="translate(159.033203 0)"/>
       <use xlink:href="#DejaVuSans-37" transform="translate(222.65625 0)"/>
       <use xlink:href="#DejaVuSans-35" transform="translate(286.279297 0)"/>
      </g>
     </g>
    </g>
    <g id="ytick_2">
     <g id="line2d_17">
      <path d="M 64.804375 250.400616 
L 561.404375 250.400616 
" clip-path="url(#p4b7048c1d9)" style="fill: none; stroke: #b0b0b0; stroke-opacity: 0.3; stroke-width: 0.8; stroke-linecap: square"/>
     </g>
     <g id="line2d_18">
      <g>
       <use xlink:href="#md28b96540a" x="64.804375" y="250.400616" style="stroke: #000000; stroke-width: 0.8"/>
      </g>
     </g>
     <g id="text_10">
      <!-- 0.1300 -->
      <g transform="translate(22.81375 254.199835) scale(0.1 -0.1)">
       <defs>
        <path id="DejaVuSans-33" d="M 2597 2516 
Q 3050 2419 3304 2112 
Q 3559 1806 3559 1356 
Q 3559 666 3084 287 
Q 2609 -91 1734 -91 
Q 1441 -91 1130 -33 
Q 819 25 488 141 
L 488 750 
Q 750 597 1062 519 
Q 1375 441 1716 441 
Q 2309 441 2620 675 
Q 2931 909 2931 1356 
Q 2931 1769 2642 2001 
Q 2353 2234 1838 2234 
L 1294 2234 
L 1294 2753 
L 1863 2753 
Q 2328 2753 2575 2939 
Q 2822 3125 2822 3475 
Q 2822 3834 2567 4026 
Q 2313 4219 1838 4219 
Q 1578 4219 1281 4162 
Q 984 4106 628 3988 
L 628 4550 
Q 988 4650 1302 4700 
Q 1616 4750 1894 4750 
Q 2613 4750 3031 4423 
Q 3450 4097 3450 3541 
Q 3450 3153 3228 2886 
Q 3006 2619 2597 2516 
z
" transform="scale(0.015625)"/>
       </defs>
       <use xlink:href="#DejaVuSans-30"/>
       <use xlink:href="#DejaVuSans-2e" transform="translate(63.623047 0)"/>
       <use xlink:href="#DejaVuSans-31" transform="translate(95.410156 0)"/>
       <use xlink:href="#DejaVuSans-33" transform="translate(159.033203 0)"/>
       <use xlink:href="#DejaVuSans-30" transform="translate(222.65625 0)"/>
       <use xlink:href="#DejaVuSans-30" transform="translate(286.279297 0)"/>
      </g>
     </g>
    </g>
    <g id="ytick_3">
     <g id="line2d_19">
      <path d="M 64.804375 210.52069 
L 561.404375 210.52069 
" clip-path="url(#p4b7048c1d9)" style="fill: none; stroke: #b0b0b0; stroke-opacity: 0.3; stroke-width: 0.8; stroke-linecap: square"/>
     </g>
     <g id="line2d_20">
      <g>
       <use xlink:href="#md28b96540a" x="64.804375" y="210.52069" style="stroke: #000000; stroke-width: 0.8"/>
      </g>
     </g>
     <g id="text_11">
      <!-- 0.1325 -->
      <g transform="translate(22.81375 214.319909) scale(0.1 -0.1)">
       <use xlink:href="#DejaVuSans-30"/>
       <use xlink:href="#DejaVuSans-2e" transform="translate(63.623047 0)"/>
       <use xlink:href="#DejaVuSans-31" transform="translate(95.410156 0)"/>
       <use xlink:href="#DejaVuSans-33" transform="translate(159.033203 0)"/>
       <use xlink:href="#DejaVuSans-32" transform="translate(222.65625 0)"/>
       <use xlink:href="#DejaVuSans-35" transform="translate(286.279297 0)"/>
      </g>
     </g>
    </g>
    <g id="ytick_4">
     <g id="line2d_21">
      <path d="M 64.804375 170.640764 
L 561.404375 170.640764 
" clip-path="url(#p4b7048c1d9)" style="fill: none; stroke: #b0b0b0; stroke-opacity: 0.3; stroke-width: 0.8; stroke-linecap: square"/>
     </g>
     <g id="line2d_22">
      <g>
       <use xlink:href="#md28b96540a" x="64.804375" y="170.640764" style="stroke: #000000; stroke-width: 0.8"/>
      </g>
     </g>
     <g id="text_12">
      <!-- 0.1350 -->
      <g transform="translate(22.81375 174.439983) scale(0.1 -0.1)">
       <use xlink:href="#DejaVuSans-30"/>
       <use xlink:href="#DejaVuSans-2e" transform="translate(63.623047 0)"/>
       <use xlink:href="#DejaVuSans-31" transform="translate(95.410156 0)"/>
       <use xlink:href="#DejaVuSans-33" transform="translate(159.033203 0)"/>
       <use xlink:href="#DejaVuSans-35" transform="translate(222.65625 0)"/>
       <use xlink:href="#DejaVuSans-30" transform="translate(286.279297 0)"/>
      </g>
     </g>
    </g>
    <g id="ytick_5">
     <g id="line2d_23">
      <path d="M 64.804375 130.760839 
L 561.404375 130.760839 
" clip-path="url(#p4b7048c1d9)" style="fill: none; stroke: #b0b0b0; stroke-opacity: 0.3; stroke-width: 0.8; stroke-linecap: square"/>
     </g>
     <g id="line2d_24">
      <g>
       <use xlink:href="#md28b96540a" x="64.804375" y="130.760839" style="stroke: #000000; stroke-width: 0.8"/>
      </g>
     </g>
     <g id="text_13">
      <!-- 0.1375 -->
      <g transform="translate(22.81375 134.560057) scale(0.1 -0.1)">
       <use xlink:href="#DejaVuSans-30"/>
       <use xlink:href="#DejaVuSans-2e" transform="translate(63.623047 0)"/>
       <use xlink:href="#DejaVuSans-31" transform="translate(95.410156 0)"/>
       <use xlink:href="#DejaVuSans-33" transform="translate(159.033203 0)"/>
       <use xlink:href="#DejaVuSans-37" transform="translate(222.65625 0)"/>
       <use xlink:href="#DejaVuSans-35" transform="translate(286.279297 0)"/>
      </g>
     </g>
    </g>
    <g id="ytick_6">
     <g id="line2d_25">
      <path d="M 64.804375 90.880913 
L 561.404375 90.880913 
" clip-path="url(#p4b7048c1d9)" style="fill: none; stroke: #b0b0b0; stroke-opacity: 0.3; stroke-width: 0.8; stroke-linecap: square"/>
     </g>
     <g id="line2d_26">
      <g>
       <use xlink:href="#md28b96540a" x="64.804375" y="90.880913" style="stroke: #000000; stroke-width: 0.8"/>
      </g>
     </g>
     <g id="text_14">
      <!-- 0.1400 -->
      <g transform="translate(22.81375 94.680132) scale(0.1 -0.1)">
       <use xlink:href="#DejaVuSans-30"/>
       <use xlink:href="#DejaVuSans-2e" transform="translate(63.623047 0)"/>
       <use xlink:href="#DejaVuSans-31" transform="translate(95.410156 0)"/>
       <use xlink:href="#DejaVuSans-34" transform="translate(159.033203 0)"/>
       <use xlink:href="#DejaVuSans-30" transform="translate(222.65625 0)"/>
       <use xlink:href="#DejaVuSans-30" transform="translate(286.279297 0)"/>
      </g>
     </g>
    </g>
    <g id="ytick_7">
     <g id="line2d_27">
      <path d="M 64.804375 51.000987 
L 561.404375 51.000987 
" clip-path="url(#p4b7048c1d9)" style="fill: none; stroke: #b0b0b0; stroke-opacity: 0.3; stroke-width: 0.8; stroke-linecap: square"/>
     </g>
     <g id="line2d_28">
      <g>
       <use xlink:href="#md28b96540a" x="64.804375" y="51.000987" style="stroke: #000000; stroke-width: 0.8"/>
      </g>
     </g>
     <g id="text_15">
      <!-- 0.1425 -->
      <g transform="translate(22.81375 54.800206) scale(0.1 -0.1)">
       <use xlink:href="#DejaVuSans-30"/>
       <use xlink:href="#DejaVuSans-2e" transform="translate(63.623047 0)"/>
       <use xlink:href="#DejaVuSans-31" transform="translate(95.410156 0)"/>
       <use xlink:href="#DejaVuSans-34" transform="translate(159.033203 0)"/>
       <use xlink:href="#DejaVuSans-32" transform="translate(222.65625 0)"/>
       <use xlink:href="#DejaVuSans-35" transform="translate(286.279297 0)"/>
      </g>
     </g>
    </g>
    <g id="text_16">
     <!-- Cross-Entropy Loss -->
     <g transform="translate(16.318125 225.142812) rotate(-90) scale(0.12 -0.12)">
      <defs>
       <path id="DejaVuSans-43" d="M 4122 4306 
L 4122 3641 
Q 3803 3938 3442 4084 
Q 3081 4231 2675 4231 
Q 1875 4231 1450 3742 
Q 1025 3253 1025 2328 
Q 1025 1406 1450 917 
Q 1875 428 2675 428 
Q 3081 428 3442 575 
Q 3803 722 4122 1019 
L 4122 359 
Q 3791 134 3420 21 
Q 3050 -91 2638 -91 
Q 1578 -91 968 557 
Q 359 1206 359 2328 
Q 359 3453 968 4101 
Q 1578 4750 2638 4750 
Q 3056 4750 3426 4639 
Q 3797 4528 4122 4306 
z
" transform="scale(0.015625)"/>
       <path id="DejaVuSans-72" d="M 2631 2963 
Q 2534 3019 2420 3045 
Q 2306 3072 2169 3072 
Q 1681 3072 1420 2755 
Q 1159 2438 1159 1844 
L 1159 0 
L 581 0 
L 581 3500 
L 1159 3500 
L 1159 2956 
Q 1341 3275 1631 3429 
Q 1922 3584 2338 3584 
Q 2397 3584 2469 3576 
Q 2541 3569 2628 3553 
L 2631 2963 
z
" transform="scale(0.015625)"/>
       <path id="DejaVuSans-6f" d="M 1959 3097 
Q 1497 3097 1228 2736 
Q 959 2375 959 1747 
Q 959 1119 1226 758 
Q 1494 397 1959 397 
Q 2419 397 2687 759 
Q 2956 1122 2956 1747 
Q 2956 2369 2687 2733 
Q 2419 3097 1959 3097 
z
M 1959 3584 
Q 2709 3584 3137 3096 
Q 3566 2609 3566 1747 
Q 3566 888 3137 398 
Q 2709 -91 1959 -91 
Q 1206 -91 779 398 
Q 353 888 353 1747 
Q 353 2609 779 3096 
Q 1206 3584 1959 3584 
z
" transform="scale(0.015625)"/>
       <path id="DejaVuSans-2d" d="M 313 2009 
L 1997 2009 
L 1997 1497 
L 313 1497 
L 313 2009 
z
" transform="scale(0.015625)"/>
       <path id="DejaVuSans-45" d="M 628 4666 
L 3578 4666 
L 3578 4134 
L 1259 4134 
L 1259 2753 
L 3481 2753 
L 3481 2222 
L 1259 2222 
L 1259 531 
L 3634 531 
L 3634 0 
L 628 0 
L 628 4666 
z
" transform="scale(0.015625)"/>
       <path id="DejaVuSans-70" d="M 1159 525 
L 1159 -1331 
L 581 -1331 
L 581 3500 
L 1159 3500 
L 1159 2969 
Q 1341 3281 1617 3432 
Q 1894 3584 2278 3584 
Q 2916 3584 3314 3078 
Q 3713 2572 3713 1747 
Q 3713 922 3314 415 
Q 2916 -91 2278 -91 
Q 1894 -91 1617 61 
Q 1341 213 1159 525 
z
M 3116 1747 
Q 3116 2381 2855 2742 
Q 2594 3103 2138 3103 
Q 1681 3103 1420 2742 
Q 1159 2381 1159 1747 
Q 1159 1113 1420 752 
Q 1681 391 2138 391 
Q 2594 391 2855 752 
Q 3116 1113 3116 1747 
z
" transform="scale(0.015625)"/>
       <path id="DejaVuSans-79" d="M 2059 -325 
Q 1816 -950 1584 -1140 
Q 1353 -1331 966 -1331 
L 506 -1331 
L 506 -850 
L 844 -850 
Q 1081 -850 1212 -737 
Q 1344 -625 1503 -206 
L 1606 56 
L 191 3500 
L 800 3500 
L 1894 763 
L 2988 3500 
L 3597 3500 
L 2059 -325 
z
" transform="scale(0.015625)"/>
       <path id="DejaVuSans-4c" d="M 628 4666 
L 1259 4666 
L 1259 531 
L 3531 531 
L 3531 0 
L 628 0 
L 628 4666 
z
" transform="scale(0.015625)"/>
      </defs>
      <use xlink:href="#DejaVuSans-43"/>
      <use xlink:href="#DejaVuSans-72" transform="translate(69.824219 0)"/>
      <use xlink:href="#DejaVuSans-6f" transform="translate(108.6875 0)"/>
      <use xlink:href="#DejaVuSans-73" transform="translate(169.869141 0)"/>
      <use xlink:href="#DejaVuSans-73" transform="translate(221.96875 0)"/>
      <use xlink:href="#DejaVuSans-2d" transform="translate(274.068359 0)"/>
      <use xlink:href="#DejaVuSans-45" transform="translate(310.152344 0)"/>
      <use xlink:href="#DejaVuSans-6e" transform="translate(373.335938 0)"/>
      <use xlink:href="#DejaVuSans-74" transform="translate(436.714844 0)"/>
      <use xlink:href="#DejaVuSans-72" transform="translate(475.923828 0)"/>
      <use xlink:href="#DejaVuSans-6f" transform="translate(514.787109 0)"/>
      <use xlink:href="#DejaVuSans-70" transform="translate(575.96875 0)"/>
      <use xlink:href="#DejaVuSans-79" transform="translate(639.445312 0)"/>
      <use xlink:href="#DejaVuSans-20" transform="translate(698.625 0)"/>
      <use xlink:href="#DejaVuSans-4c" transform="translate(730.412109 0)"/>
      <use xlink:href="#DejaVuSans-6f" transform="translate(784.375 0)"/>
      <use xlink:href="#DejaVuSans-73" transform="translate(845.556641 0)"/>
      <use xlink:href="#DejaVuSans-73" transform="translate(897.65625 0)"/>
     </g>
    </g>
   </g>
   <g id="patch_3">
    <path d="M 64.804375 312.477812 
L 64.804375 23.837812 
" style="fill: none; stroke: #000000; stroke-width: 0.8; stroke-linejoin: miter; stroke-linecap: square"/>
   </g>
   <g id="patch_4">
    <path d="M 561.404375 312.477812 
L 561.404375 23.837812 
" style="fill: none; stroke: #000000; stroke-width: 0.8; stroke-linejoin: miter; stroke-linecap: square"/>
   </g>
   <g id="patch_5">
    <path d="M 64.804375 312.477812 
L 561.404375 312.477812 
" style="fill: none; stroke: #000000; stroke-width: 0.8; stroke-linejoin: miter; stroke-linecap: square"/>
   </g>
   <g id="patch_6">
    <path d="M 64.804375 23.837812 
L 561.404375 23.837812 
" style="fill: none; stroke: #000000; stroke-width: 0.8; stroke-linejoin: miter; stroke-linecap: square"/>
   </g>
   <g id="text_17">
    <!-- Logistic Regression: Runtime vs Cross-Entropy (all seeds) -->
    <g transform="translate(84.85625 17.837812) scale(0.14 -0.14)">
     <defs>
      <path id="DejaVuSans-Bold-4c" d="M 588 4666 
L 1791 4666 
L 1791 909 
L 3903 909 
L 3903 0 
L 588 0 
L 588 4666 
z
" transform="scale(0.015625)"/>
      <path id="DejaVuSans-Bold-6f" d="M 2203 2784 
Q 1831 2784 1636 2517 
Q 1441 2250 1441 1747 
Q 1441 1244 1636 976 
Q 1831 709 2203 709 
Q 2569 709 2762 976 
Q 2956 1244 2956 1747 
Q 2956 2250 2762 2517 
Q 2569 2784 2203 2784 
z
M 2203 3584 
Q 3106 3584 3614 3096 
Q 4122 2609 4122 1747 
Q 4122 884 3614 396 
Q 3106 -91 2203 -91 
Q 1297 -91 786 396 
Q 275 884 275 1747 
Q 275 2609 786 3096 
Q 1297 3584 2203 3584 
z
" transform="scale(0.015625)"/>
      <path id="DejaVuSans-Bold-67" d="M 2919 594 
Q 2688 288 2409 144 
Q 2131 0 1766 0 
Q 1125 0 706 504 
Q 288 1009 288 1791 
Q 288 2575 706 3076 
Q 1125 3578 1766 3578 
Q 2131 3578 2409 3434 
Q 2688 3291 2919 2981 
L 2919 3500 
L 4044 3500 
L 4044 353 
Q 4044 -491 3511 -936 
Q 2978 -1381 1966 -1381 
Q 1638 -1381 1331 -1331 
Q 1025 -1281 716 -1178 
L 716 -306 
Q 1009 -475 1290 -558 
Q 1572 -641 1856 -641 
Q 2406 -641 2662 -400 
Q 2919 -159 2919 353 
L 2919 594 
z
M 2181 2772 
Q 1834 2772 1640 2515 
Q 1447 2259 1447 1791 
Q 1447 1309 1634 1061 
Q 1822 813 2181 813 
Q 2531 813 2725 1069 
Q 2919 1325 2919 1791 
Q 2919 2259 2725 2515 
Q 2531 2772 2181 2772 
z
" transform="scale(0.015625)"/>
      <path id="DejaVuSans-Bold-69" d="M 538 3500 
L 1656 3500 
L 1656 0 
L 538 0 
L 538 3500 
z
M 538 4863 
L 1656 4863 
L 1656 3950 
L 538 3950 
L 538 4863 
z
" transform="scale(0.015625)"/>
      <path id="DejaVuSans-Bold-73" d="M 3272 3391 
L 3272 2541 
Q 2913 2691 2578 2766 
Q 2244 2841 1947 2841 
Q 1628 2841 1473 2761 
Q 1319 2681 1319 2516 
Q 1319 2381 1436 2309 
Q 1553 2238 1856 2203 
L 2053 2175 
Q 2913 2066 3209 1816 
Q 3506 1566 3506 1031 
Q 3506 472 3093 190 
Q 2681 -91 1863 -91 
Q 1516 -91 1145 -36 
Q 775 19 384 128 
L 384 978 
Q 719 816 1070 734 
Q 1422 653 1784 653 
Q 2113 653 2278 743 
Q 2444 834 2444 1013 
Q 2444 1163 2330 1236 
Q 2216 1309 1875 1350 
L 1678 1375 
Q 931 1469 631 1722 
Q 331 1975 331 2491 
Q 331 3047 712 3315 
Q 1094 3584 1881 3584 
Q 2191 3584 2531 3537 
Q 2872 3491 3272 3391 
z
" transform="scale(0.015625)"/>
      <path id="DejaVuSans-Bold-74" d="M 1759 4494 
L 1759 3500 
L 2913 3500 
L 2913 2700 
L 1759 2700 
L 1759 1216 
Q 1759 972 1856 886 
Q 1953 800 2241 800 
L 2816 800 
L 2816 0 
L 1856 0 
Q 1194 0 917 276 
Q 641 553 641 1216 
L 641 2700 
L 84 2700 
L 84 3500 
L 641 3500 
L 641 4494 
L 1759 4494 
z
" transform="scale(0.015625)"/>
      <path id="DejaVuSans-Bold-63" d="M 3366 3391 
L 3366 2478 
Q 3138 2634 2908 2709 
Q 2678 2784 2431 2784 
Q 1963 2784 1702 2511 
Q 1441 2238 1441 1747 
Q 1441 1256 1702 982 
Q 1963 709 2431 709 
Q 2694 709 2930 787 
Q 3166 866 3366 1019 
L 3366 103 
Q 3103 6 2833 -42 
Q 2563 -91 2291 -91 
Q 1344 -91 809 395 
Q 275 881 275 1747 
Q 275 2613 809 3098 
Q 1344 3584 2291 3584 
Q 2566 3584 2833 3536 
Q 3100 3488 3366 3391 
z
" transform="scale(0.015625)"/>
      <path id="DejaVuSans-Bold-20" transform="scale(0.015625)"/>
      <path id="DejaVuSans-Bold-52" d="M 2297 2597 
Q 2675 2597 2839 2737 
Q 3003 2878 3003 3200 
Q 3003 3519 2839 3656 
Q 2675 3794 2297 3794 
L 1791 3794 
L 1791 2597 
L 2297 2597 
z
M 1791 1766 
L 1791 0 
L 588 0 
L 588 4666 
L 2425 4666 
Q 3347 4666 3776 4356 
Q 4206 4047 4206 3378 
Q 4206 2916 3982 2619 
Q 3759 2322 3309 2181 
Q 3556 2125 3751 1926 
Q 3947 1728 4147 1325 
L 4800 0 
L 3519 0 
L 2950 1159 
Q 2778 1509 2601 1637 
Q 2425 1766 2131 1766 
L 1791 1766 
z
" transform="scale(0.015625)"/>
      <path id="DejaVuSans-Bold-65" d="M 4031 1759 
L 4031 1441 
L 1416 1441 
Q 1456 1047 1700 850 
Q 1944 653 2381 653 
Q 2734 653 3104 758 
Q 3475 863 3866 1075 
L 3866 213 
Q 3469 63 3072 -14 
Q 2675 -91 2278 -91 
Q 1328 -91 801 392 
Q 275 875 275 1747 
Q 275 2603 792 3093 
Q 1309 3584 2216 3584 
Q 3041 3584 3536 3087 
Q 4031 2591 4031 1759 
z
M 2881 2131 
Q 2881 2450 2695 2645 
Q 2509 2841 2209 2841 
Q 1884 2841 1681 2658 
Q 1478 2475 1428 2131 
L 2881 2131 
z
" transform="scale(0.015625)"/>
      <path id="DejaVuSans-Bold-72" d="M 3138 2547 
Q 2991 2616 2845 2648 
Q 2700 2681 2553 2681 
Q 2122 2681 1889 2404 
Q 1656 2128 1656 1613 
L 1656 0 
L 538 0 
L 538 3500 
L 1656 3500 
L 1656 2925 
Q 1872 3269 2151 3426 
Q 2431 3584 2822 3584 
Q 2878 3584 2943 3579 
Q 3009 3575 3134 3559 
L 3138 2547 
z
" transform="scale(0.015625)"/>
      <path id="DejaVuSans-Bold-6e" d="M 4056 2131 
L 4056 0 
L 2931 0 
L 2931 347 
L 2931 1631 
Q 2931 2084 2911 2256 
Q 2891 2428 2841 2509 
Q 2775 2619 2662 2680 
Q 2550 2741 2406 2741 
Q 2056 2741 1856 2470 
Q 1656 2200 1656 1722 
L 1656 0 
L 538 0 
L 538 3500 
L 1656 3500 
L 1656 2988 
Q 1909 3294 2193 3439 
Q 2478 3584 2822 3584 
Q 3428 3584 3742 3212 
Q 4056 2841 4056 2131 
z
" transform="scale(0.015625)"/>
      <path id="DejaVuSans-Bold-3a" d="M 716 3500 
L 1844 3500 
L 1844 2291 
L 716 2291 
L 716 3500 
z
M 716 1209 
L 1844 1209 
L 1844 0 
L 716 0 
L 716 1209 
z
" transform="scale(0.015625)"/>
      <path id="DejaVuSans-Bold-75" d="M 500 1363 
L 500 3500 
L 1625 3500 
L 1625 3150 
Q 1625 2866 1622 2436 
Q 1619 2006 1619 1863 
Q 1619 1441 1641 1255 
Q 1663 1069 1716 984 
Q 1784 875 1895 815 
Q 2006 756 2150 756 
Q 2500 756 2700 1025 
Q 2900 1294 2900 1772 
L 2900 3500 
L 4019 3500 
L 4019 0 
L 2900 0 
L 2900 506 
Q 2647 200 2364 54 
Q 2081 -91 1741 -91 
Q 1134 -91 817 281 
Q 500 653 500 1363 
z
" transform="scale(0.015625)"/>
      <path id="DejaVuSans-Bold-6d" d="M 3781 2919 
Q 3994 3244 4286 3414 
Q 4578 3584 4928 3584 
Q 5531 3584 5847 3212 
Q 6163 2841 6163 2131 
L 6163 0 
L 5038 0 
L 5038 1825 
Q 5041 1866 5042 1909 
Q 5044 1953 5044 2034 
Q 5044 2406 4934 2573 
Q 4825 2741 4581 2741 
Q 4263 2741 4089 2478 
Q 3916 2216 3909 1719 
L 3909 0 
L 2784 0 
L 2784 1825 
Q 2784 2406 2684 2573 
Q 2584 2741 2328 2741 
Q 2006 2741 1831 2477 
Q 1656 2213 1656 1722 
L 1656 0 
L 531 0 
L 531 3500 
L 1656 3500 
L 1656 2988 
Q 1863 3284 2130 3434 
Q 2397 3584 2719 3584 
Q 3081 3584 3359 3409 
Q 3638 3234 3781 2919 
z
" transform="scale(0.015625)"/>
      <path id="DejaVuSans-Bold-76" d="M 97 3500 
L 1216 3500 
L 2088 1081 
L 2956 3500 
L 4078 3500 
L 2700 0 
L 1472 0 
L 97 3500 
z
" transform="scale(0.015625)"/>
      <path id="DejaVuSans-Bold-43" d="M 4288 256 
Q 3956 84 3597 -3 
Q 3238 -91 2847 -91 
Q 1681 -91 1000 561 
Q 319 1213 319 2328 
Q 319 3447 1000 4098 
Q 1681 4750 2847 4750 
Q 3238 4750 3597 4662 
Q 3956 4575 4288 4403 
L 4288 3438 
Q 3953 3666 3628 3772 
Q 3303 3878 2944 3878 
Q 2300 3878 1931 3465 
Q 1563 3053 1563 2328 
Q 1563 1606 1931 1193 
Q 2300 781 2944 781 
Q 3303 781 3628 887 
Q 3953 994 4288 1222 
L 4288 256 
z
" transform="scale(0.015625)"/>
      <path id="DejaVuSans-Bold-2d" d="M 347 2297 
L 2309 2297 
L 2309 1388 
L 347 1388 
L 347 2297 
z
" transform="scale(0.015625)"/>
      <path id="DejaVuSans-Bold-45" d="M 588 4666 
L 3834 4666 
L 3834 3756 
L 1791 3756 
L 1791 2888 
L 3713 2888 
L 3713 1978 
L 1791 1978 
L 1791 909 
L 3903 909 
L 3903 0 
L 588 0 
L 588 4666 
z
" transform="scale(0.015625)"/>
      <path id="DejaVuSans-Bold-70" d="M 1656 506 
L 1656 -1331 
L 538 -1331 
L 538 3500 
L 1656 3500 
L 1656 2988 
Q 1888 3294 2169 3439 
Q 2450 3584 2816 3584 
Q 3463 3584 3878 3070 
Q 4294 2556 4294 1747 
Q 4294 938 3878 423 
Q 3463 -91 2816 -91 
Q 2450 -91 2169 54 
Q 1888 200 1656 506 
z
M 2400 2772 
Q 2041 2772 1848 2508 
Q 1656 2244 1656 1747 
Q 1656 1250 1848 986 
Q 2041 722 2400 722 
Q 2759 722 2948 984 
Q 3138 1247 3138 1747 
Q 3138 2247 2948 2509 
Q 2759 2772 2400 2772 
z
" transform="scale(0.015625)"/>
      <path id="DejaVuSans-Bold-79" d="M 78 3500 
L 1197 3500 
L 2138 1125 
L 2938 3500 
L 4056 3500 
L 2584 -331 
Q 2363 -916 2067 -1148 
Q 1772 -1381 1288 -1381 
L 641 -1381 
L 641 -647 
L 991 -647 
Q 1275 -647 1404 -556 
Q 1534 -466 1606 -231 
L 1638 -134 
L 78 3500 
z
" transform="scale(0.015625)"/>
      <path id="DejaVuSans-Bold-28" d="M 2413 -844 
L 1484 -844 
Q 1006 -72 778 623 
Q 550 1319 550 2003 
Q 550 2688 779 3389 
Q 1009 4091 1484 4856 
L 2413 4856 
Q 2013 4116 1813 3408 
Q 1613 2700 1613 2009 
Q 1613 1319 1811 609 
Q 2009 -100 2413 -844 
z
" transform="scale(0.015625)"/>
      <path id="DejaVuSans-Bold-61" d="M 2106 1575 
Q 1756 1575 1579 1456 
Q 1403 1338 1403 1106 
Q 1403 894 1545 773 
Q 1688 653 1941 653 
Q 2256 653 2472 879 
Q 2688 1106 2688 1447 
L 2688 1575 
L 2106 1575 
z
M 3816 1997 
L 3816 0 
L 2688 0 
L 2688 519 
Q 2463 200 2181 54 
Q 1900 -91 1497 -91 
Q 953 -91 614 226 
Q 275 544 275 1050 
Q 275 1666 698 1953 
Q 1122 2241 2028 2241 
L 2688 2241 
L 2688 2328 
Q 2688 2594 2478 2717 
Q 2269 2841 1825 2841 
Q 1466 2841 1156 2769 
Q 847 2697 581 2553 
L 581 3406 
Q 941 3494 1303 3539 
Q 1666 3584 2028 3584 
Q 2975 3584 3395 3211 
Q 3816 2838 3816 1997 
z
" transform="scale(0.015625)"/>
      <path id="DejaVuSans-Bold-6c" d="M 538 4863 
L 1656 4863 
L 1656 0 
L 538 0 
L 538 4863 
z
" transform="scale(0.015625)"/>
      <path id="DejaVuSans-Bold-64" d="M 2919 2988 
L 2919 4863 
L 4044 4863 
L 4044 0 
L 2919 0 
L 2919 506 
Q 2688 197 2409 53 
Q 2131 -91 1766 -91 
Q 1119 -91 703 423 
Q 288 938 288 1747 
Q 288 2556 703 3070 
Q 1119 3584 1766 3584 
Q 2128 3584 2408 3439 
Q 2688 3294 2919 2988 
z
M 2181 722 
Q 2541 722 2730 984 
Q 2919 1247 2919 1747 
Q 2919 2247 2730 2509 
Q 2541 2772 2181 2772 
Q 1825 2772 1636 2509 
Q 1447 2247 1447 1747 
Q 1447 1247 1636 984 
Q 1825 722 2181 722 
z
" transform="scale(0.015625)"/>
      <path id="DejaVuSans-Bold-29" d="M 513 -844 
Q 913 -100 1113 609 
Q 1313 1319 1313 2009 
Q 1313 2700 1113 3408 
Q 913 4116 513 4856 
L 1441 4856 
Q 1916 4091 2145 3389 
Q 2375 2688 2375 2003 
Q 2375 1319 2147 623 
Q 1919 -72 1441 -844 
L 513 -844 
z
" transform="scale(0.015625)"/>
     </defs>
     <use xlink:href="#DejaVuSans-Bold-4c"/>
     <use xlink:href="#DejaVuSans-Bold-6f" transform="translate(63.720703 0)"/>
     <use xlink:href="#DejaVuSans-Bold-67" transform="translate(132.421875 0)"/>
     <use xlink:href="#DejaVuSans-Bold-69" transform="translate(204.003906 0)"/>
     <use xlink:href="#DejaVuSans-Bold-73" transform="translate(238.28125 0)"/>
     <use xlink:href="#DejaVuSans-Bold-74" transform="translate(297.802734 0)"/>
     <use xlink:href="#DejaVuSans-Bold-69" transform="translate(345.605469 0)"/>
     <use xlink:href="#DejaVuSans-Bold-63" transform="translate(379.882812 0)"/>
     <use xlink:href="#DejaVuSans-Bold-20" transform="translate(439.160156 0)"/>
     <use xlink:href="#DejaVuSans-Bold-52" transform="translate(473.974609 0)"/>
     <use xlink:href="#DejaVuSans-Bold-65" transform="translate(550.976562 0)"/>
     <use xlink:href="#DejaVuSans-Bold-67" transform="translate(618.798828 0)"/>
     <use xlink:href="#DejaVuSans-Bold-72" transform="translate(690.380859 0)"/>
     <use xlink:href="#DejaVuSans-Bold-65" transform="translate(739.697266 0)"/>
     <use xlink:href="#DejaVuSans-Bold-73" transform="translate(807.519531 0)"/>
     <use xlink:href="#DejaVuSans-Bold-73" transform="translate(867.041016 0)"/>
     <use xlink:href="#DejaVuSans-Bold-69" transform="translate(926.5625 0)"/>
     <use xlink:href="#DejaVuSans-Bold-6f" transform="translate(960.839844 0)"/>
     <use xlink:href="#DejaVuSans-Bold-6e" transform="translate(1029.541016 0)"/>
     <use xlink:href="#DejaVuSans-Bold-3a" transform="translate(1100.732422 0)"/>
     <use xlink:href="#DejaVuSans-Bold-20" transform="translate(1140.722656 0)"/>
     <use xlink:href="#DejaVuSans-Bold-52" transform="translate(1175.537109 0)"/>
     <use xlink:href="#DejaVuSans-Bold-75" transform="translate(1252.539062 0)"/>
     <use xlink:href="#DejaVuSans-Bold-6e" transform="translate(1323.730469 0)"/>
     <use xlink:href="#DejaVuSans-Bold-74" transform="translate(1394.921875 0)"/>
     <use xlink:href="#DejaVuSans-Bold-69" transform="translate(1442.724609 0)"/>
     <use xlink:href="#DejaVuSans-Bold-6d" transform="translate(1477.001953 0)"/>
     <use xlink:href="#DejaVuSans-Bold-65" transform="translate(1581.201172 0)"/>
     <use xlink:href="#DejaVuSans-Bold-20" transform="translate(1649.023438 0)"/>
     <use xlink:href="#DejaVuSans-Bold-76" transform="translate(1683.837891 0)"/>
     <use xlink:href="#DejaVuSans-Bold-73" transform="translate(1749.023438 0)"/>
     <use xlink:href="#DejaVuSans-Bold-20" transform="translate(1808.544922 0)"/>
     <use xlink:href="#DejaVuSans-Bold-43" transform="translate(1843.359375 0)"/>
     <use xlink:href="#DejaVuSans-Bold-72" transform="translate(1916.748047 0)"/>
     <use xlink:href="#DejaVuSans-Bold-6f" transform="translate(1966.064453 0)"/>
     <use xlink:href="#DejaVuSans-Bold-73" transform="translate(2034.765625 0)"/>
     <use xlink:href="#DejaVuSans-Bold-73" transform="translate(2094.287109 0)"/>
     <use xlink:href="#DejaVuSans-Bold-2d" transform="translate(2153.808594 0)"/>
     <use xlink:href="#DejaVuSans-Bold-45" transform="translate(2195.3125 0)"/>
     <use xlink:href="#DejaVuSans-Bold-6e" transform="translate(2263.623047 0)"/>
     <use xlink:href="#DejaVuSans-Bold-74" transform="translate(2334.814453 0)"/>
     <use xlink:href="#DejaVuSans-Bold-72" transform="translate(2382.617188 0)"/>
     <use xlink:href="#DejaVuSans-Bold-6f" transform="translate(2431.933594 0)"/>
     <use xlink:href="#DejaVuSans-Bold-70" transform="translate(2500.634766 0)"/>
     <use xlink:href="#DejaVuSans-Bold-79" transform="translate(2572.216797 0)"/>
     <use xlink:href="#DejaVuSans-Bold-20" transform="translate(2637.402344 0)"/>
     <use xlink:href="#DejaVuSans-Bold-28" transform="translate(2672.216797 0)"/>
     <use xlink:href="#DejaVuSans-Bold-61" transform="translate(2717.919922 0)"/>
     <use xlink:href="#DejaVuSans-Bold-6c" transform="translate(2785.400391 0)"/>
     <use xlink:href="#DejaVuSans-Bold-6c" transform="translate(2819.677734 0)"/>
     <use xlink:href="#DejaVuSans-Bold-20" transform="translate(2853.955078 0)"/>
     <use xlink:href="#DejaVuSans-Bold-73" transform="translate(2888.769531 0)"/>
     <use xlink:href="#DejaVuSans-Bold-65" transform="translate(2948.291016 0)"/>
     <use xlink:href="#DejaVuSans-Bold-65" transform="translate(3016.113281 0)"/>
     <use xlink:href="#DejaVuSans-Bold-64" transform="translate(3083.935547 0)"/>
     <use xlink:href="#DejaVuSans-Bold-73" transform="translate(3155.517578 0)"/>
     <use xlink:href="#DejaVuSans-Bold-29" transform="translate(3215.039062 0)"/>
    </g>
   </g>
   <g id="legend_1">
    <g id="patch_7">
     <path d="M 435.668437 75.872187 
L 554.404375 75.872187 
Q 556.404375 75.872187 556.404375 73.872187 
L 556.404375 30.837812 
Q 556.404375 28.837812 554.404375 28.837812 
L 435.668437 28.837812 
Q 433.668437 28.837812 433.668437 30.837812 
L 433.668437 73.872187 
Q 433.668437 75.872187 435.668437 75.872187 
z
" style="fill: #ffffff; opacity: 0.8; stroke: #cccccc; stroke-linejoin: miter"/>
    </g>
    <g id="PathCollection_4">
     <g>
      <use xlink:href="#m3d1c8e9bbc" x="447.668437" y="37.81125" style="fill: #1f77b4; stroke: #1f77b4; stroke-width: 0.3"/>
     </g>
    </g>
    <g id="text_18">
     <!-- AlgoTune Logistic -->
     <g transform="translate(465.668437 40.43625) scale(0.1 -0.1)">
      <defs>
       <path id="DejaVuSans-41" d="M 2188 4044 
L 1331 1722 
L 3047 1722 
L 2188 4044 
z
M 1831 4666 
L 2547 4666 
L 4325 0 
L 3669 0 
L 3244 1197 
L 1141 1197 
L 716 0 
L 50 0 
L 1831 4666 
z
" transform="scale(0.015625)"/>
       <path id="DejaVuSans-6c" d="M 603 4863 
L 1178 4863 
L 1178 0 
L 603 0 
L 603 4863 
z
" transform="scale(0.015625)"/>
       <path id="DejaVuSans-67" d="M 2906 1791 
Q 2906 2416 2648 2759 
Q 2391 3103 1925 3103 
Q 1463 3103 1205 2759 
Q 947 2416 947 1791 
Q 947 1169 1205 825 
Q 1463 481 1925 481 
Q 2391 481 2648 825 
Q 2906 1169 2906 1791 
z
M 3481 434 
Q 3481 -459 3084 -895 
Q 2688 -1331 1869 -1331 
Q 1566 -1331 1297 -1286 
Q 1028 -1241 775 -1147 
L 775 -588 
Q 1028 -725 1275 -790 
Q 1522 -856 1778 -856 
Q 2344 -856 2625 -561 
Q 2906 -266 2906 331 
L 2906 616 
Q 2728 306 2450 153 
Q 2172 0 1784 0 
Q 1141 0 747 490 
Q 353 981 353 1791 
Q 353 2603 747 3093 
Q 1141 3584 1784 3584 
Q 2172 3584 2450 3431 
Q 2728 3278 2906 2969 
L 2906 3500 
L 3481 3500 
L 3481 434 
z
" transform="scale(0.015625)"/>
       <path id="DejaVuSans-54" d="M -19 4666 
L 3928 4666 
L 3928 4134 
L 2272 4134 
L 2272 0 
L 1638 0 
L 1638 4134 
L -19 4134 
L -19 4666 
z
" transform="scale(0.015625)"/>
       <path id="DejaVuSans-63" d="M 3122 3366 
L 3122 2828 
Q 2878 2963 2633 3030 
Q 2388 3097 2138 3097 
Q 1578 3097 1268 2742 
Q 959 2388 959 1747 
Q 959 1106 1268 751 
Q 1578 397 2138 397 
Q 2388 397 2633 464 
Q 2878 531 3122 666 
L 3122 134 
Q 2881 22 2623 -34 
Q 2366 -91 2075 -91 
Q 1284 -91 818 406 
Q 353 903 353 1747 
Q 353 2603 823 3093 
Q 1294 3584 2113 3584 
Q 2378 3584 2631 3529 
Q 2884 3475 3122 3366 
z
" transform="scale(0.015625)"/>
      </defs>
      <use xlink:href="#DejaVuSans-41"/>
      <use xlink:href="#DejaVuSans-6c" transform="translate(68.408203 0)"/>
      <use xlink:href="#DejaVuSans-67" transform="translate(96.191406 0)"/>
      <use xlink:href="#DejaVuSans-6f" transform="translate(159.667969 0)"/>
      <use xlink:href="#DejaVuSans-54" transform="translate(220.849609 0)"/>
      <use xlink:href="#DejaVuSans-75" transform="translate(266.808594 0)"/>
      <use xlink:href="#DejaVuSans-6e" transform="translate(330.1875 0)"/>
      <use xlink:href="#DejaVuSans-65" transform="translate(393.566406 0)"/>
      <use xlink:href="#DejaVuSans-20" transform="translate(455.089844 0)"/>
      <use xlink:href="#DejaVuSans-4c" transform="translate(486.876953 0)"/>
      <use xlink:href="#DejaVuSans-6f" transform="translate(540.839844 0)"/>
      <use xlink:href="#DejaVuSans-67" transform="translate(602.021484 0)"/>
      <use xlink:href="#DejaVuSans-69" transform="translate(665.498047 0)"/>
      <use xlink:href="#DejaVuSans-73" transform="translate(693.28125 0)"/>
      <use xlink:href="#DejaVuSans-74" transform="translate(745.380859 0)"/>
      <use xlink:href="#DejaVuSans-69" transform="translate(784.589844 0)"/>
      <use xlink:href="#DejaVuSans-63" transform="translate(812.373047 0)"/>
     </g>
    </g>
    <g id="PathCollection_5">
     <g>
      <use xlink:href="#mc83695c2a5" x="447.668437" y="52.489375" style="fill: #d62728; fill-opacity: 0.7; stroke: #000000; stroke-opacity: 0.7; stroke-width: 0.3"/>
     </g>
    </g>
    <g id="text_19">
     <!-- Full Newton -->
     <g transform="translate(465.668437 55.114375) scale(0.1 -0.1)">
      <defs>
       <path id="DejaVuSans-46" d="M 628 4666 
L 3309 4666 
L 3309 4134 
L 1259 4134 
L 1259 2759 
L 3109 2759 
L 3109 2228 
L 1259 2228 
L 1259 0 
L 628 0 
L 628 4666 
z
" transform="scale(0.015625)"/>
       <path id="DejaVuSans-4e" d="M 628 4666 
L 1478 4666 
L 3547 763 
L 3547 4666 
L 4159 4666 
L 4159 0 
L 3309 0 
L 1241 3903 
L 1241 0 
L 628 0 
L 628 4666 
z
" transform="scale(0.015625)"/>
       <path id="DejaVuSans-77" d="M 269 3500 
L 844 3500 
L 1563 769 
L 2278 3500 
L 2956 3500 
L 3675 769 
L 4391 3500 
L 4966 3500 
L 4050 0 
L 3372 0 
L 2619 2869 
L 1863 0 
L 1184 0 
L 269 3500 
z
" transform="scale(0.015625)"/>
      </defs>
      <use xlink:href="#DejaVuSans-46"/>
      <use xlink:href="#DejaVuSans-75" transform="translate(52.019531 0)"/>
      <use xlink:href="#DejaVuSans-6c" transform="translate(115.398438 0)"/>
      <use xlink:href="#DejaVuSans-6c" transform="translate(143.181641 0)"/>
      <use xlink:href="#DejaVuSans-20" transform="translate(170.964844 0)"/>
      <use xlink:href="#DejaVuSans-4e" transform="translate(202.751953 0)"/>
      <use xlink:href="#DejaVuSans-65" transform="translate(277.556641 0)"/>
      <use xlink:href="#DejaVuSans-77" transform="translate(339.080078 0)"/>
      <use xlink:href="#DejaVuSans-74" transform="translate(420.867188 0)"/>
      <use xlink:href="#DejaVuSans-6f" transform="translate(460.076172 0)"/>
      <use xlink:href="#DejaVuSans-6e" transform="translate(521.257812 0)"/>
     </g>
    </g>
    <g id="PathCollection_6">
     <g>
      <use xlink:href="#mafda88e827" x="447.668437" y="67.1675" style="fill: #2ca02c; fill-opacity: 0.7; stroke: #000000; stroke-opacity: 0.7; stroke-width: 0.3"/>
     </g>
    </g>
    <g id="text_20">
     <!-- Newton Sketch -->
     <g transform="translate(465.668437 69.7925) scale(0.1 -0.1)">
      <defs>
       <path id="DejaVuSans-53" d="M 3425 4513 
L 3425 3897 
Q 3066 4069 2747 4153 
Q 2428 4238 2131 4238 
Q 1616 4238 1336 4038 
Q 1056 3838 1056 3469 
Q 1056 3159 1242 3001 
Q 1428 2844 1947 2747 
L 2328 2669 
Q 3034 2534 3370 2195 
Q 3706 1856 3706 1288 
Q 3706 609 3251 259 
Q 2797 -91 1919 -91 
Q 1588 -91 1214 -16 
Q 841 59 441 206 
L 441 856 
Q 825 641 1194 531 
Q 1563 422 1919 422 
Q 2459 422 2753 634 
Q 3047 847 3047 1241 
Q 3047 1584 2836 1778 
Q 2625 1972 2144 2069 
L 1759 2144 
Q 1053 2284 737 2584 
Q 422 2884 422 3419 
Q 422 4038 858 4394 
Q 1294 4750 2059 4750 
Q 2388 4750 2728 4690 
Q 3069 4631 3425 4513 
z
" transform="scale(0.015625)"/>
       <path id="DejaVuSans-6b" d="M 581 4863 
L 1159 4863 
L 1159 1991 
L 2875 3500 
L 3609 3500 
L 1753 1863 
L 3688 0 
L 2938 0 
L 1159 1709 
L 1159 0 
L 581 0 
L 581 4863 
z
" transform="scale(0.015625)"/>
       <path id="DejaVuSans-68" d="M 3513 2113 
L 3513 0 
L 2938 0 
L 2938 2094 
Q 2938 2591 2744 2837 
Q 2550 3084 2163 3084 
Q 1697 3084 1428 2787 
Q 1159 2491 1159 1978 
L 1159 0 
L 581 0 
L 581 4863 
L 1159 4863 
L 1159 2956 
Q 1366 3272 1645 3428 
Q 1925 3584 2291 3584 
Q 2894 3584 3203 3211 
Q 3513 2838 3513 2113 
z
" transform="scale(0.015625)"/>
      </defs>
      <use xlink:href="#DejaVuSans-4e"/>
      <use xlink:href="#DejaVuSans-65" transform="translate(74.804688 0)"/>
      <use xlink:href="#DejaVuSans-77" transform="translate(136.328125 0)"/>
      <use xlink:href="#DejaVuSans-74" transform="translate(218.115234 0)"/>
      <use xlink:href="#DejaVuSans-6f" transform="translate(257.324219 0)"/>
      <use xlink:href="#DejaVuSans-6e" transform="translate(318.505859 0)"/>
      <use xlink:href="#DejaVuSans-20" transform="translate(381.884766 0)"/>
      <use xlink:href="#DejaVuSans-53" transform="translate(413.671875 0)"/>
      <use xlink:href="#DejaVuSans-6b" transform="translate(477.148438 0)"/>
      <use xlink:href="#DejaVuSans-65" transform="translate(531.433594 0)"/>
      <use xlink:href="#DejaVuSans-74" transform="translate(592.957031 0)"/>
      <use xlink:href="#DejaVuSans-63" transform="translate(632.166016 0)"/>
      <use xlink:href="#DejaVuSans-68" transform="translate(687.146484 0)"/>
     </g>
    </g>
   </g>
  </g>
 </g>
 <defs>
  <clipPath id="p4b7048c1d9">
   <rect x="64.804375" y="23.837812" width="496.6" height="288.64"/>
  </clipPath>
 </defs>
</svg>
